<?xml version="1.0" encoding="utf-8"?>

<!DOCTYPE svg PUBLIC "-//W3C//DTD SVG 1.1//EN" "http://www.w3.org/Graphics/SVG/1.1/DTD/svg11.dtd">
<!-- Uploaded to: SVG Repo, www.svgrepo.com, Generator: SVG Repo Mixer Tools -->
<svg height="800px" width="800px" version="1.1" id="_x32_" xmlns="http://www.w3.org/2000/svg" xmlns:xlink="http://www.w3.org/1999/xlink" 
	 viewBox="0 0 512 512"  xml:space="preserve">
<style type="text/css">
	.st0{fill:#000000;}
</style>
<g>
	<path class="st0" d="M256,0C114.838,0,0,114.838,0,256c0,141.155,114.837,256,256,256s256-114.844,256-256
		C512,114.838,397.162,0,256,0z M256,466.052c-115.998,0-210.052-94.054-210.052-210.052c0-115.998,94.054-210.059,210.052-210.059
		c115.998,0,210.052,94.061,210.052,210.059C466.052,371.998,371.998,466.052,256,466.052z"/>
	<path class="st0" d="M318.102,239.162l-81.076-48.406c-0.756-0.441-1.717-0.47-2.5-0.021c-0.755,0.435-1.246,1.268-1.246,2.158
		v40.043l-70.642-42.18c-0.755-0.441-1.716-0.47-2.499-0.021c-0.756,0.435-1.24,1.268-1.24,2.158V256v63.091
		c0,0.912,0.484,1.738,1.24,2.158c0.783,0.463,1.744,0.435,2.499-0.014l70.642-42.172v40.028c0,0.912,0.492,1.738,1.246,2.158
		c0.783,0.463,1.744,0.435,2.5-0.014l81.076-48.398v43.534h35V193.834h-35V239.162z"/>
</g>
</svg>