<?xml version="1.0" encoding="utf-8"?>

<!DOCTYPE svg PUBLIC "-//W3C//DTD SVG 1.1//EN" "http://www.w3.org/Graphics/SVG/1.1/DTD/svg11.dtd">
<!-- Uploaded to: SVG Repo, www.svgrepo.com, Generator: SVG Repo Mixer Tools -->
<svg height="800px" width="800px" version="1.1" id="_x32_" xmlns="http://www.w3.org/2000/svg" xmlns:xlink="http://www.w3.org/1999/xlink" 
	 viewBox="0 0 512 512"  xml:space="preserve">
<style type="text/css">
	.st0{fill:#000000;}
</style>
<g>
	<path class="st0" d="M256,0C114.838,0,0,114.838,0,256c0,141.155,114.838,256,256,256c141.163,0,256-114.845,256-256
		C512,114.838,397.163,0,256,0z M256,466.052c-115.998,0-210.052-94.054-210.052-210.052S140.002,45.94,256,45.94
		S466.052,140.002,466.052,256S371.998,466.052,256,466.052z"/>
	<path class="st0" d="M351.862,190.743c-0.783-0.456-1.744-0.427-2.499,0.014l-70.642,42.173v-40.028
		c0-0.905-0.492-1.731-1.246-2.158c-0.783-0.456-1.745-0.427-2.5,0.014l-81.077,48.405v-43.533h-35v122.53h35V272.83l81.077,48.406
		c0.755,0.448,1.716,0.477,2.5,0.021c0.755-0.428,1.246-1.268,1.246-2.151v-40.044l70.642,42.174
		c0.755,0.448,1.716,0.477,2.499,0.021c0.756-0.428,1.24-1.268,1.24-2.151v-63.113v-63.092
		C353.102,191.996,352.618,191.171,351.862,190.743z"/>
</g>
</svg>